# xmcd
#
# Track frame offsets:
#	150
#	15238
#	36199
#	63090
#	79278
#	102651
#	120015
#
# Disc length: 2034 seconds
#
# Revision: 1
# Processed by: cddbd v1.5.1PL0 Copyright (c) Steve Scherf et al.
# Submitted via: audiograbber 1.83.01
#
DISCID=4807f007
DTITLE=Cuby And The Blizzards - Too Blind To See
DYEAR=1900
DGENRE=Blues
TTITLE0=Thursday Night
TTITLE1=Night Train
TTITLE2=Evil Woman
TTITLE3=Wee Wee Baby
TTITLE4=Too Blind To See
TTITLE5=Birks' Works
TTITLE6=Time Past Me By
EXTD=
EXTT0=
EXTT1=
EXTT2=
EXTT3=
EXTT4=
EXTT5=
EXTT6=
PLAYORDER=
